nColumns=19
nRows=15
DataType=double
version=3
OpenSimVersion=4.5.2-2025-05-03-6a4c6ec41
endheader
time	force3_vx	force3_vy	force3_vz	force3_px	force3_py	force3_pz	moment3_x	moment3_y	moment3_z	force4_vx	force4_vy	force4_vz	force4_px	force4_py	force4_pz	moment4_x	moment4_y	moment4_z
2.362	-0.0002719777642153769	-0.004452323291226381	-1.050888166269753e-05	0.03331920523134876	-0.002999999764329564	-0.003205263551378372	-1.266911793822745e-08	0.08435678968501562	-9.662960081933266e-19	0.00015336524107104	0.001769858422338214	-0.002164196380346727	0.09024254939968586	-0.00300000075204354	-0.007885262581834125	8.268807651959666e-09	-0.05505750515249136	1.108486416392538e-18
2.363	-0.0006871932933120897	-0.004768353805170271	-0.0002902520126334449	0.03419606501917458	-0.002999999632638174	-0.002796737319704202	-1.463148268071674e-08	0.09742311290342084	-1.052648187045176e-18	0.0008834194707784206	0.002369622589942594	-0.00240649556477111	0.08841408859579161	-0.003000001026650889	-0.008641712254290571	9.08281503778945e-09	-0.06047753881790731	8.718471336908357e-19
2.364	-0.001006729559223216	-0.004931149764411526	-0.0005779251828167569	0.03478374992183067	-0.002999999544376476	-0.002521549022409304	-1.601779478782496e-08	0.1066538138431412	-9.415442572352991e-19	0.001579568849768956	0.002677044670421689	-0.002448162863369009	0.08693962966102328	-0.003000001248092483	-0.009107957382373385	9.336418741068251e-09	-0.06216614832387005	5.82247049271468e-19
2.365	-0.00121650439663507	-0.004896762648262026	-0.0008223214980802896	0.03510632540250146	-0.002999999495930239	-0.002381496264231673	-1.653453304562458e-08	0.1100944938291221	-6.419860011195982e-19	0.002240417677271492	0.002690057276302674	-0.002326826444310533	0.08599811362161026	-0.003000001389494063	-0.009172485959122074	8.977914005585742e-09	-0.05977905974346028	2.859545381614301e-19
2.366	-0.0013211638824572	-0.004627653852156736	-0.0009733997075178092	0.03519971759250526	-0.002999999481903937	-0.00237943836999794	-1.599661076124193e-08	0.1065127608905283	-1.851473029237526e-19	0.002846792213634585	0.002442469318674417	-0.002086616140931584	0.08570427925324278	-0.003000001433623585	-0.008747736155941051	8.034362557881314e-09	-0.05349646243547045	2.648165074712751e-20
2.367	-0.001339371073670146	-0.004119142149775496	-0.00101242308135427	0.03509430647720355	-0.002999999497734989	-0.002499991523268569	-1.443948172941708e-08	0.09614468263065892	3.699054994974078e-19	0.003337288817520816	0.001978194241823689	-0.001745251483030457	0.08603771922334691	-0.003000001383545919	-0.007879123611825953	6.598582742029442e-09	-0.04393638340848626	-1.607867499976494e-19
2.368	-0.001307598642107304	-0.003400613388290259	-0.0009447807305122984	0.0348249915565077	-0.002999999538182033	-0.0027200557022059	-1.205922070110473e-08	0.08029581454377439	9.429491276447364e-19	0.003633835762825776	0.001355233805319281	-0.001304542777963456	0.086867886933908	-0.003000001258867198	-0.006752696957843423	4.759173037157473e-09	-0.03168875187927537	-2.448448826150768e-19
2.369	-0.00126414879695244	-0.002512327641240785	-0.0007716829491754296	0.03444286187196874	-0.002999999595572274	-0.0030366263568868	-9.096500124996175e-09	0.06056866402146441	1.445873177677871e-18	0.003676519592143104	0.000653694825476447	-0.000783190604005966	0.08803560880572968	-0.003000001083492898	-0.00557079208007915	2.60862691364744e-09	-0.01736943169872959	-1.954679964652941e-19
2.37	-0.001215969939925533	-0.001485090144499836	-0.0004835095650680683	0.03399157522558496	-0.002999999663348956	-0.003474393568397405	-5.802660603197184e-09	0.0386367719066639	1.796329524643676e-18	0.003457674455355397	-6.094719631251015e-05	-0.0002216953262345546	0.08938889804374185	-0.003000000880249157	-0.004461706767050684	2.803165096697803e-10	-0.001866475593948639	1.96575409168265e-20
2.371	-0.001129676219422454	-0.0003485519313414084	-8.391426547456012e-05	0.03348061595249428	-0.002999999740087648	-0.004046185768786488	-2.429471756330932e-09	0.01617653564387557	1.929983779952017e-18	0.003029095948845735	-0.000781048727106165	0.0003445479661856756	0.0907938638726484	-0.003000000669244361	-0.003482732000492816	-2.106407716533892e-09	0.01402542646926823	4.277331432761187e-19
2.372	-0.0009533933256522756	0.0008558367749097294	0.0003873160065348063	0.0328962841500973	-0.002999999827845829	-0.004707950570429718	8.234702146540816e-10	-0.005483041846118216	1.8098328118034e-18	0.002464410962818875	-0.001537840637797787	0.0009006602860351405	0.09216416909631021	-0.003000000463445071	-0.002635201818181806	-4.503347689321972e-09	0.02998534964782328	1.024254435804888e-18
2.373	-0.0006534209739520163	0.002082673615139929	0.0008720675342732171	0.03224897816583157	-0.002999999925061777	-0.005374941030422854	3.844428093307554e-09	-0.02559796300068077	1.431493228080583e-18	0.001826771812296942	-0.002344271932197807	0.001439639260311817	0.09347033762049262	-0.003000000267278163	-0.001871825937432363	-6.90765979013337e-09	0.04599435982808555	1.752797628480235e-18
2.374	-0.0002357252969659175	0.003289332013972803	0.00132637170269306	0.03158543740283296	-0.003000000024715893	-0.005984978109290936	6.585919210306388e-09	-0.04385206646043898	8.239483382940686e-19	0.001166417785821434	-0.003164587085061277	0.001942274741514845	0.09470314731690246	-0.003000000082128673	-0.00112975346032464	-9.292022048913243e-09	0.06187053483091232	2.517318113859398e-18
2.375	0.0002619946362371075	0.004412388305271369	0.00172292896032672	0.03093821818451774	-0.003000000121918662	-0.006529553202413822	9.001441511016753e-09	-0.05993572024767872	4.5886879924859e-20	0.0005270109466037306	-0.003928171781036248	0.002374218950342417	0.09583100030443532	-0.002999999912742133	-0.0003676442330090583	-1.156799981923493e-08	0.07702503631274293	3.201188765345115e-18
2.376	0.0007715650116953074	0.005313544036821344	0.002037367307673814	0.03031035841712369	-0.003000000216213808	-0.007018857628443185	1.093848917394211e-08	-0.0728334707551529	-8.216130627275866e-19	-5.825961468661412e-05	-0.004572206898111675	0.002705057671706816	0.09679245510801331	-0.002999999768346132	0.0004229097761618943	-1.361731596705031e-08	0.09067032099153342	3.676415623451086e-18
